<?xml version="1.0" encoding="UTF-8" ?>
<!DOCTYPE svg PUBLIC "-//W3C//DTD SVG 1.1//EN" "http://www.w3.org/Graphics/SVG/1.1/DTD/svg11.dtd">
<svg width="106pt" height="106pt" viewBox="0 -27.5 106 106" version="1.1" preserveAspectRatio="xMidYMid meet" xmlns="http://www.w3.org/2000/svg">
<g id="#01ccccff">
<path fill="#01cccc" opacity="1.00" d=" M 87.97 9.69 C 90.89 9.46 93.83 9.43 96.77 9.49 C 96.67 10.63 96.52 11.77 96.31 12.90 C 94.35 13.01 92.38 13.13 90.43 13.33 C 91.77 15.01 93.94 14.89 95.86 15.10 C 99.03 17.80 98.71 22.41 95.78 25.16 C 93.09 25.31 90.12 25.60 87.91 23.71 C 87.73 20.11 91.50 21.31 93.61 22.15 C 93.96 21.61 94.67 20.53 95.03 19.99 C 94.70 19.52 94.03 18.59 93.70 18.12 C 91.91 17.70 89.24 18.79 88.17 16.90 C 87.86 14.51 87.99 12.09 87.97 9.69 Z" />
</g>
<g id="#ff0068ff">
<path fill="#ff0068" opacity="1.00" d=" M 67.54 9.65 C 69.71 9.65 71.88 9.66 74.06 9.70 C 74.16 16.40 74.06 23.09 74.12 29.79 C 76.10 27.59 77.69 24.95 80.12 23.23 C 82.29 22.97 84.49 23.13 86.67 23.18 C 84.86 26.10 82.57 28.67 80.25 31.19 C 82.84 34.30 85.50 37.35 88.03 40.52 C 85.46 40.87 82.87 40.90 80.29 40.86 C 78.26 38.17 76.19 35.51 74.09 32.87 C 74.08 35.51 74.09 38.15 74.07 40.79 C 71.91 40.86 69.74 40.89 67.58 40.91 C 67.48 37.31 67.46 33.71 67.58 30.11 L 68.18 29.30 C 69.65 27.28 70.94 25.14 72.18 22.97 C 70.64 22.49 69.10 22.02 67.54 21.63 C 67.49 17.64 67.49 13.65 67.54 9.65 Z" />
</g>
<g id="#6666d0ff">
<path fill="#6666d0" opacity="1.00" d=" M 31.04 22.00 C 33.51 17.09 38.24 12.91 44.02 13.09 C 49.94 12.66 54.84 17.02 57.24 22.09 C 56.64 22.18 55.43 22.36 54.83 22.45 C 54.52 27.16 54.68 31.89 54.68 36.61 C 51.53 39.51 47.50 41.97 43.03 41.34 C 37.70 41.16 33.63 37.20 31.21 32.78 C 32.45 29.24 33.70 25.69 34.68 22.06 C 33.77 22.04 31.95 22.01 31.04 22.00 M 42.24 22.17 C 38.21 23.54 37.63 29.67 41.29 31.81 C 44.33 34.14 49.05 31.67 49.36 27.99 C 50.12 24.23 45.80 20.44 42.24 22.17 Z" />
</g>
<g id="#ffcd00ff">
<path fill="#ffcd00" opacity="1.00" d=" M 6.32 22.07 C 8.28 22.02 10.24 21.98 12.20 21.95 C 13.20 24.32 14.12 26.71 15.05 29.11 C 16.74 26.43 18.42 23.74 20.20 21.12 C 22.51 23.49 24.26 26.32 25.92 29.17 C 27.34 26.77 27.13 21.40 31.04 22.00 C 31.95 22.01 33.77 22.04 34.68 22.06 C 33.70 25.69 32.45 29.24 31.21 32.78 C 30.13 35.97 29.04 39.19 27.31 42.11 C 24.81 38.75 22.63 35.19 20.28 31.73 C 18.12 35.20 16.02 38.70 13.66 42.04 C 10.17 35.86 8.33 28.84 6.32 22.07 Z" />
</g>
<g id="#00cd00ff">
<path fill="#00cd00" opacity="1.00" d=" M 54.83 22.45 C 55.43 22.36 56.64 22.18 57.24 22.09 C 57.68 22.03 58.56 21.91 59.01 21.85 C 59.52 22.94 60.03 24.03 60.53 25.12 C 62.51 23.38 64.63 21.17 67.54 21.63 C 69.10 22.02 70.64 22.49 72.18 22.97 C 70.94 25.14 69.65 27.28 68.18 29.30 C 66.81 29.51 65.09 28.93 63.95 29.92 C 62.68 30.88 63.03 32.61 62.90 33.98 C 62.82 37.67 63.09 41.36 62.83 45.05 C 60.65 46.80 57.40 45.52 54.80 45.83 C 54.66 42.76 54.69 39.68 54.68 36.61 C 54.68 31.89 54.52 27.16 54.83 22.45 Z" />
</g>
</svg>
